<?xml version="1.0" standalone="no"?>
<!DOCTYPE svg PUBLIC "-//W3C//DTD SVG 20010904//EN"
 "http://www.w3.org/TR/2001/REC-SVG-20010904/DTD/svg10.dtd">
<svg version="1.0" xmlns="http://www.w3.org/2000/svg"
 width="1250.000000pt" height="1008.000000pt" viewBox="0 0 1250.000000 1008.000000"
 preserveAspectRatio="xMidYMid meet">

<g transform="translate(0.000000,1008.000000) scale(0.100000,-0.100000)"
fill="#3fa7de" stroke="none">
<path d="M6834 9444 c-17 -22 -38 -50 -47 -64 -9 -14 -50 -72 -92 -130 -41
-58 -119 -168 -172 -245 -78 -113 -191 -272 -235 -330 -4 -5 -25 -30 -46 -54
l-38 -43 -258 -1 c-241 0 -259 1 -284 20 -25 18 -192 234 -337 433 -33 46 -64
88 -70 94 -5 6 -63 81 -127 167 -64 86 -123 159 -130 162 -16 6 -92 -6 -171
-27 -132 -36 -458 -151 -537 -189 l-85 -42 -5 -569 -5 -569 -42 -22 c-61 -33
-207 -140 -294 -216 -42 -37 -86 -70 -98 -74 -20 -6 -70 5 -116 25 -11 5 -69
23 -130 40 -60 17 -141 41 -180 54 -64 21 -103 33 -190 57 -16 5 -104 31 -195
60 -181 56 -226 68 -254 69 -22 0 -68 -47 -153 -155 -180 -230 -343 -480 -343
-526 0 -18 155 -249 173 -257 4 -2 7 -10 7 -17 0 -7 4 -15 8 -17 5 -1 36 -39
68 -83 33 -44 79 -105 103 -135 24 -30 75 -100 112 -155 38 -55 89 -125 114
-155 59 -72 64 -104 32 -188 -46 -118 -98 -290 -110 -363 -7 -44 -18 -75 -27
-80 -8 -4 -76 -26 -150 -49 -74 -23 -166 -53 -205 -67 -38 -13 -126 -44 -195
-67 -125 -44 -198 -70 -235 -87 -11 -4 -51 -18 -90 -29 -38 -12 -92 -29 -120
-38 l-50 -17 -7 -110 c-11 -182 2 -675 19 -708 18 -37 92 -68 278 -119 54 -15
105 -29 135 -39 50 -16 267 -81 335 -101 39 -11 79 -24 90 -28 24 -10 68 -24
155 -48 l65 -18 53 -164 c30 -91 67 -201 84 -245 51 -135 57 -114 -97 -340
-137 -199 -256 -367 -400 -563 -91 -123 -97 -138 -80 -179 14 -33 149 -238
172 -262 8 -7 32 -41 55 -75 23 -33 71 -95 108 -136 36 -42 79 -94 95 -117 54
-76 44 -76 327 16 316 103 336 110 373 126 38 17 227 77 327 104 104 29 128
27 163 -9 33 -34 185 -145 284 -206 34 -21 75 -49 90 -61 l26 -21 5 -546 c5
-532 6 -546 26 -566 19 -19 217 -91 498 -180 123 -39 278 -71 304 -62 11 3
136 177 221 306 18 28 50 74 70 101 21 28 68 93 106 145 69 95 151 208 209
287 45 62 79 75 152 62 73 -14 211 -4 321 22 58 14 88 16 106 10 28 -11 172
-184 255 -306 15 -22 92 -127 172 -234 80 -106 162 -217 183 -245 81 -108 102
-115 228 -76 35 11 82 25 104 32 96 26 388 131 465 166 25 11 54 22 65 24 20
3 20 12 22 572 l2 569 22 23 c12 13 27 24 32 24 24 0 252 169 334 249 35 33
71 39 127 21 17 -5 78 -25 136 -44 58 -20 146 -46 195 -60 114 -31 240 -68
380 -111 314 -97 284 -96 363 -7 101 114 345 467 391 566 24 51 21 69 -16 116
-83 106 -271 356 -326 435 -38 55 -78 111 -89 125 -199 259 -219 302 -172 375
16 25 37 89 58 177 9 36 25 92 36 124 11 31 20 65 20 75 0 53 85 87 740 300
69 23 134 45 145 50 11 4 48 17 82 28 106 34 99 21 106 181 7 166 -8 637 -22
673 -8 20 -24 29 -83 47 -106 31 -330 101 -353 110 -11 4 -78 24 -150 45 -110
32 -256 77 -405 126 -48 16 -88 45 -104 77 -7 15 -21 63 -31 107 -20 91 -31
126 -74 243 -41 111 -40 136 8 203 22 30 70 98 108 151 255 363 336 477 360
507 15 18 32 44 39 56 6 12 23 40 38 61 42 62 31 114 -46 215 -19 24 -61 82
-93 129 -154 220 -311 400 -350 400 -12 0 -53 -13 -91 -28 -38 -15 -89 -34
-114 -41 -25 -8 -97 -31 -160 -52 -143 -47 -305 -98 -345 -109 -44 -12 -254
-86 -297 -104 l-37 -16 -58 51 c-32 28 -135 102 -229 165 -117 77 -173 120
-178 136 -3 13 -6 118 -6 234 0 116 -3 354 -7 529 -5 276 -8 320 -23 335 -20
20 -139 67 -290 115 -63 20 -124 40 -135 45 -33 14 -264 70 -319 76 -52 6 -53
6 -82 -32z m-934 -2268 c234 -52 430 -164 605 -344 l102 -105 98 13 c111 15
294 8 377 -14 214 -56 385 -167 528 -341 87 -107 107 -142 144 -254 39 -116
64 -149 128 -169 176 -55 397 -228 514 -404 169 -254 220 -590 134 -882 -18
-61 -101 -224 -155 -306 -96 -144 -246 -269 -430 -356 -146 -70 -418 -121
-508 -96 -21 6 -44 9 -51 6 -6 -2 -27 -35 -45 -72 -85 -172 -234 -342 -401
-456 -96 -66 -247 -143 -342 -175 -210 -70 -527 -70 -756 0 -185 57 -416 200
-533 329 -40 44 -82 83 -95 86 -12 3 -61 -4 -108 -15 -92 -23 -216 -27 -307
-12 -30 6 -88 15 -129 22 -93 14 -214 52 -294 91 -208 101 -272 144 -392 263
-139 138 -213 239 -281 382 -67 142 -85 204 -114 383 -31 195 -30 319 5 472
58 258 125 392 294 588 140 163 246 244 446 345 77 39 142 77 146 85 4 8 12
25 18 37 7 13 12 30 12 40 0 19 12 59 49 158 53 143 247 393 371 478 25 17 53
38 62 47 29 27 231 126 298 147 57 18 103 28 210 47 51 9 337 -3 400 -18z"/>
<path d="M5570 6774 c-14 -2 -56 -9 -95 -15 -38 -6 -76 -15 -85 -19 -8 -5 -49
-24 -90 -43 -66 -30 -116 -68 -216 -162 -12 -11 -41 -49 -66 -85 -80 -116
-120 -248 -134 -444 -4 -50 -11 -99 -15 -108 -5 -9 -26 -20 -47 -23 -152 -25
-217 -44 -302 -89 -165 -87 -258 -163 -349 -286 -57 -77 -74 -110 -133 -260
l-33 -85 0 -200 c0 -239 2 -247 94 -435 39 -81 69 -124 125 -186 124 -134 221
-197 399 -260 92 -32 116 -36 242 -41 166 -7 231 2 401 58 66 21 128 39 136
39 9 0 30 -29 49 -67 85 -168 215 -301 375 -382 166 -84 195 -91 382 -93 109
-1 181 3 207 11 86 27 222 87 269 117 110 73 246 230 298 346 18 39 67 196 74
238 8 44 27 105 38 118 5 7 17 11 25 9 236 -72 331 -91 428 -84 229 15 415
141 516 349 60 124 67 149 67 254 0 129 -15 196 -68 299 -35 70 -64 108 -126
171 -71 71 -92 85 -170 118 -111 45 -153 55 -237 56 -114 0 -149 46 -149 199
0 137 -23 204 -106 312 -117 153 -278 226 -479 216 -112 -5 -165 -20 -277 -77
-99 -52 -117 -51 -146 3 -13 23 -42 76 -64 117 -80 146 -180 249 -323 332 -70
40 -82 45 -152 64 -54 14 -219 26 -263 18z"/>
</g>
</svg>
